<svg xmlns="http://www.w3.org/2000/svg" xmlns:xlink="http://www.w3.org/1999/xlink" id="Layer_1" width="823.289" height="315.935" x="0" y="0" enable-background="new 0 0 823.289 315.935" version="1.1" viewBox="0 0 823.289 315.935" xml:space="preserve"><g><line x1="822.96" x2="30.128" y1="241.05" y2="241.05" fill="none" stroke="#E8E8E8" stroke-miterlimit="10"/><line x1="822.96" x2="30.128" y1="194.384" y2="194.384" fill="none" stroke="#E8E8E8" stroke-miterlimit="10"/><line x1="822.96" x2="30.128" y1="101.051" y2="101.051" fill="none" stroke="#E8E8E8" stroke-miterlimit="10"/><line x1="822.96" x2="30.128" y1="147.717" y2="147.717" fill="none" stroke="#E8E8E8" stroke-miterlimit="10"/><line x1="822.96" x2="30.128" y1="54.384" y2="54.384" fill="none" stroke="#E8E8E8" stroke-miterlimit="10"/><line x1="87.81" x2="87.81" y1="7.425" y2="295.457" fill="none" stroke="#E8E8E8" stroke-miterlimit="10"/><line x1="136.81" x2="136.81" y1="7.425" y2="295.457" fill="none" stroke="#E8E8E8" stroke-miterlimit="10"/><line x1="185.81" x2="185.81" y1="7.425" y2="295.457" fill="none" stroke="#E8E8E8" stroke-miterlimit="10"/><line x1="234.81" x2="234.81" y1="7.425" y2="295.457" fill="none" stroke="#E8E8E8" stroke-miterlimit="10"/><line x1="283.81" x2="283.81" y1="7.425" y2="295.457" fill="none" stroke="#E8E8E8" stroke-miterlimit="10"/><line x1="332.81" x2="332.81" y1="7.425" y2="295.457" fill="none" stroke="#E8E8E8" stroke-miterlimit="10"/><line x1="381.81" x2="381.81" y1="7.425" y2="295.457" fill="none" stroke="#E8E8E8" stroke-miterlimit="10"/><line x1="430.81" x2="430.81" y1="7.425" y2="295.457" fill="none" stroke="#E8E8E8" stroke-miterlimit="10"/><line x1="479.81" x2="479.81" y1="7.425" y2="295.457" fill="none" stroke="#E8E8E8" stroke-miterlimit="10"/><line x1="528.81" x2="528.81" y1="7.425" y2="295.457" fill="none" stroke="#E8E8E8" stroke-miterlimit="10"/><line x1="577.81" x2="577.81" y1="7.425" y2="295.457" fill="none" stroke="#E8E8E8" stroke-miterlimit="10"/><line x1="626.81" x2="626.81" y1="7.425" y2="295.457" fill="none" stroke="#E8E8E8" stroke-miterlimit="10"/><line x1="675.81" x2="675.81" y1="7.425" y2="295.457" fill="none" stroke="#E8E8E8" stroke-miterlimit="10"/><line x1="724.81" x2="724.81" y1="7.425" y2="295.457" fill="none" stroke="#E8E8E8" stroke-miterlimit="10"/><line x1="773.81" x2="773.81" y1="7.425" y2="295.457" fill="none" stroke="#E8E8E8" stroke-miterlimit="10"/><line x1="822.96" x2="30.128" y1="287.717" y2="287.717" fill="none" stroke="#778D9B" stroke-miterlimit="10"/><line x1="822.81" x2="822.81" y1="7.425" y2="288.175" fill="none" stroke="#778D9B" stroke-miterlimit="10"/><line x1="823.289" x2="38.115" y1="7.717" y2="7.717" fill="none" stroke="#778D9B" stroke-miterlimit="10"/><line x1="38.81" x2="38.81" y1="7.425" y2="295.457" fill="none" stroke="#778D9B" stroke-miterlimit="10"/><text fill="#778D9B" font-family="'Dosis-Medium'" font-size="14" transform="matrix(1 0 0 1 0 12.1167)">2015</text><text fill="#778D9B" font-family="'Dosis-Medium'" font-size="14" transform="matrix(1 0 0 1 0 59.1167)">2014</text><text fill="#778D9B" font-family="'Dosis-Medium'" font-size="14" transform="matrix(1 0 0 1 0 105.1167)">2013</text><text fill="#778D9B" font-family="'Dosis-Medium'" font-size="14" transform="matrix(1 0 0 1 0 152.1167)">2012</text><text fill="#778D9B" font-family="'Dosis-Medium'" font-size="14" transform="matrix(1 0 0 1 0 198.1167)">2011</text><text fill="#778D9B" font-family="'Dosis-Medium'" font-size="14" transform="matrix(1 0 0 1 0 245.1167)">2010</text><text fill="#778D9B" font-family="'Dosis-Medium'" font-size="14" transform="matrix(1 0 0 1 0 291.1167)">2009</text><text fill="#778D9B" font-family="'Dosis-Medium'" font-size="14" transform="matrix(1 0 0 1 31 312.6167)">AA</text><text fill="#778D9B" font-family="'Dosis-Medium'" font-size="14" transform="matrix(1 0 0 1 80.6499 312.6167)">BB</text><text fill="#778D9B" font-family="'Dosis-Medium'" font-size="14" transform="matrix(1 0 0 1 129.8462 312.6167)">CC</text><text fill="#778D9B" font-family="'Dosis-Medium'" font-size="14" transform="matrix(1 0 0 1 178.5942 312.6167)">AG</text><text fill="#778D9B" font-family="'Dosis-Medium'" font-size="14" transform="matrix(1 0 0 1 227.9302 312.6167)">XY</text><text fill="#778D9B" font-family="'Dosis-Medium'" font-size="14" transform="matrix(1 0 0 1 277.3223 312.6167)">FF</text><text fill="#778D9B" font-family="'Dosis-Medium'" font-size="14" transform="matrix(1 0 0 1 325.853 312.6167)">ZD</text><text fill="#778D9B" font-family="'Dosis-Medium'" font-size="14" transform="matrix(1 0 0 1 376 312.6167)">FR</text><text fill="#778D9B" font-family="'Dosis-Medium'" font-size="14" transform="matrix(1 0 0 1 424.021 312.6167)">TR</text><text fill="#778D9B" font-family="'Dosis-Medium'" font-size="14" transform="matrix(1 0 0 1 473.1675 312.6167)">ES</text><text fill="#778D9B" font-family="'Dosis-Medium'" font-size="14" transform="matrix(1 0 0 1 521.7554 312.6167)">US</text><text fill="#778D9B" font-family="'Dosis-Medium'" font-size="14" transform="matrix(1 0 0 1 570.6636 312.6167)">BR</text><text fill="#778D9B" font-family="'Dosis-Medium'" font-size="14" transform="matrix(1 0 0 1 619.7476 312.6167)">ZN</text><text fill="#778D9B" font-family="'Dosis-Medium'" font-size="14" transform="matrix(1 0 0 1 668.7202 312.6167)">DE</text><text fill="#778D9B" font-family="'Dosis-Medium'" font-size="14" transform="matrix(1 0 0 1 718.0288 312.6167)">XC</text><text fill="#778D9B" font-family="'Dosis-Medium'" font-size="14" transform="matrix(1 0 0 1 766.4194 312.6167)">AU</text><polyline fill="none" stroke="#1C75BC" stroke-linecap="round" stroke-linejoin="round" stroke-miterlimit="10" stroke-width="2" points="87.81 101.051 185.81 194.384 332.81 54.384 430.702 147.425 479.81 101.051 528.81 147.425 626.81 194.384 724.81 101.051 773.81 241.05"/><polyline fill="none" stroke="#FBB040" stroke-linecap="round" stroke-linejoin="round" stroke-miterlimit="10" stroke-width="2" points="87.81 218.677 185.81 241.05 381.81 147.425 529 194.384 577.81 101.051 626.81 241.05 773.81 101.051"/><circle cx="87.81" cy="101.051" r="3.583" fill="#1C75BC"/><circle cx="185.81" cy="194.384" r="3.583" fill="#1C75BC"/><circle cx="332.81" cy="54.676" r="3.583" fill="#1C75BC"/><circle cx="430.81" cy="147.238" r="3.583" fill="#1C75BC"/><circle cx="479.81" cy="101.051" r="3.583" fill="#1C75BC"/><circle cx="528.81" cy="147.717" r="3.583" fill="#1C75BC"/><circle cx="626.81" cy="194.384" r="3.583" fill="#1C75BC"/><circle cx="724.81" cy="101.533" r="3.583" fill="#1C75BC"/><circle cx="773.81" cy="241.05" r="3.583" fill="#1C75BC"/><circle cx="773.81" cy="101.051" r="3.583" fill="#FBB040"/><circle cx="626.999" cy="240.55" r="3.583" fill="#FBB040"/><circle cx="577.811" cy="101.533" r="3.583" fill="#FBB040"/><circle cx="528.81" cy="194.05" r="3.583" fill="#FBB040"/><circle cx="381.81" cy="147.717" r="3.583" fill="#FBB040"/><circle cx="186" cy="241.05" r="3.583" fill="#FBB040"/><circle cx="87.81" cy="218.717" r="3.583" fill="#FBB040"/></g></svg>