<svg xmlns="http://www.w3.org/2000/svg" xmlns:xlink="http://www.w3.org/1999/xlink" id="Layer_1" width="49.625" height="49.625" x="0" y="0" enable-background="new 0 0 49.625 49.625" version="1.1" viewBox="0 0 49.625 49.625" xml:space="preserve"><path fill="#231F20" d="M21.538,28.109"/><g><path fill="#9FADB5" d="M42.112,22.453v4.719c0,0.655-0.229,1.211-0.688,1.67c-0.458,0.458-1.018,0.688-1.67,0.688H9.871 c-0.655,0-1.211-0.229-1.67-0.688c-0.458-0.459-0.688-1.015-0.688-1.67v-4.719c0-0.655,0.229-1.212,0.688-1.671 c0.459-0.458,1.015-0.688,1.67-0.688h29.884c0.652,0,1.212,0.229,1.67,0.688C41.884,21.241,42.112,21.798,42.112,22.453z"/></g></svg>