<svg xmlns="http://www.w3.org/2000/svg" xmlns:xlink="http://www.w3.org/1999/xlink" id="Layer_1" width="49.625" height="49.625" x="0" y="0" enable-background="new 0 0 49.625 49.625" version="1.1" viewBox="0 0 49.625 49.625" xml:space="preserve"><g><path fill="#FCFCFC" d="M42.163,22.446v4.73c0,0.657-0.229,1.218-0.69,1.677c-0.459,0.461-1.019,0.688-1.676,0.688H29.544v10.253 c0,0.657-0.229,1.217-0.688,1.678c-0.461,0.461-1.021,0.688-1.676,0.688h-4.733c-0.657,0-1.216-0.229-1.676-0.688 c-0.46-0.461-0.69-1.021-0.69-1.678V29.544H9.828c-0.657,0-1.216-0.229-1.676-0.688c-0.46-0.461-0.69-1.02-0.69-1.677v-4.73 c0-0.657,0.23-1.216,0.69-1.676s1.019-0.69,1.676-0.69h10.253V9.828c0-0.657,0.229-1.216,0.69-1.676 c0.46-0.46,1.019-0.69,1.676-0.69h4.733c0.655,0,1.215,0.23,1.676,0.69c0.459,0.46,0.688,1.019,0.688,1.676V20.08h10.253 c0.657,0,1.217,0.23,1.676,0.69C41.934,21.23,42.163,21.789,42.163,22.446z"/></g></svg>