<svg xmlns="http://www.w3.org/2000/svg" xmlns:xlink="http://www.w3.org/1999/xlink" id="Layer_1" width="600" height="600" x="0" y="0" enable-background="new 0 0 600 600" version="1.1" viewBox="0 0 600 600" xml:space="preserve"><g><path fill="#6BD3F2" d="M363.637,432.604V167.394c0-5.304,1.858-9.812,5.568-13.521c3.713-3.716,8.222-5.568,13.521-5.568h18.183 c5.305,0,9.812,1.854,13.522,5.568c3.713,3.709,5.567,8.218,5.567,13.521v265.209c0,5.303-1.854,9.811-5.567,13.522 c-3.712,3.711-8.22,5.568-13.522,5.568h-18.183c-5.301,0-9.81-1.857-13.521-5.568C365.495,442.412,363.637,437.904,363.637,432.604 z M271.818,432.604V167.394c0-5.304,1.857-9.812,5.569-13.521c3.713-3.716,8.221-5.568,13.522-5.568h18.181 c5.305,0,9.812,1.854,13.521,5.568c3.715,3.709,5.567,8.218,5.567,13.521v265.209c0,5.303-1.854,9.811-5.567,13.522 c-3.709,3.711-8.218,5.568-13.521,5.568h-18.18c-5.302,0-9.81-1.857-13.522-5.568C273.676,442.412,271.818,437.904,271.818,432.604 z M180,432.604V167.394c0-5.304,1.859-9.812,5.568-13.521c3.714-3.716,8.223-5.568,13.523-5.568h18.181 c5.304,0,9.813,1.854,13.524,5.568c3.711,3.709,5.567,8.218,5.567,13.521v265.209c0,5.303-1.856,9.811-5.567,13.522 c-3.711,3.711-8.22,5.568-13.524,5.568h-18.181c-5.301,0-9.81-1.857-13.524-5.568C181.859,442.412,180,437.904,180,432.604z"/></g></svg>