<svg xmlns="http://www.w3.org/2000/svg" xmlns:xlink="http://www.w3.org/1999/xlink" id="Layer_3" width="100" height="100" x="0" y="0" enable-background="new 0 0 100 100" version="1.1" viewBox="0 0 100 100" xml:space="preserve"><g><path fill="#FFF" d="M19.678,19.678v60.645h60.645V19.678H19.678z M73.661,22.979c1.088,0,1.963,0.879,1.963,1.959 c0,1.086-0.875,1.968-1.963,1.968c-1.083,0-1.963-0.882-1.963-1.968C71.698,23.86,72.578,22.979,73.661,22.979z M66.808,22.979 c1.078,0,1.961,0.879,1.961,1.959c0,1.086-0.883,1.968-1.961,1.968c-1.088,0-1.963-0.882-1.963-1.968 C64.845,23.86,65.72,22.979,66.808,22.979z M75.632,75.723H24.37V31.151h51.262V75.723z"/><path fill="#FFF" d="M50,73.089c10.762,0,19.479-8.717,19.479-19.471c0-10.753-8.717-19.479-19.479-19.479 c-10.759,0-19.481,8.726-19.481,19.479C30.519,64.377,39.241,73.089,50,73.089z M38.694,46.255l3.942-3.942L50,49.679l7.36-7.366 l3.935,3.942l-7.358,7.36l7.361,7.355l-3.94,3.942L50,57.556l-7.363,7.36l-3.942-3.942l7.36-7.355L38.694,46.255z"/></g></svg>