<svg xmlns="http://www.w3.org/2000/svg" xmlns:xlink="http://www.w3.org/1999/xlink" id="Capa_1" width="135.869" height="91.764" x="0" y="0" enable-background="new 144.631 70.986 135.869 91.764" version="1.1" viewBox="144.631 70.986 135.869 91.764" xml:space="preserve"><g><path fill="#F1F6F9" d="M211.368,104.354c0,1.13-0.413,2.108-1.237,2.933c-0.826,0.825-1.805,1.238-2.934,1.238h-58.396 c-1.13,0-2.108-0.413-2.933-1.238c-0.826-0.825-1.238-1.803-1.238-2.933s0.412-2.106,1.238-2.933l29.197-29.197 c0.824-0.825,1.803-1.238,2.933-1.238s2.108,0.413,2.933,1.238l29.199,29.197C210.955,102.248,211.368,103.225,211.368,104.354z M210.131,126.449c0.824,0.825,1.237,1.803,1.237,2.933c0,1.13-0.413,2.106-1.237,2.932l-29.199,29.198 c-0.824,0.825-1.803,1.238-2.933,1.238s-2.108-0.413-2.933-1.238l-29.197-29.198c-0.826-0.825-1.238-1.802-1.238-2.932 c0-1.13,0.412-2.108,1.238-2.933c0.825-0.825,1.803-1.238,2.933-1.238h58.396C208.326,125.21,209.305,125.624,210.131,126.449z"/></g></svg>