<svg xmlns="http://www.w3.org/2000/svg" xmlns:xlink="http://www.w3.org/1999/xlink" id="Layer_1" width="49.625" height="49.625" x="0" y="0" enable-background="new 0 0 49.625 49.625" version="1.1" viewBox="0 0 49.625 49.625" xml:space="preserve"><path fill="#9FADB5" d="M38.953,21.541H28.086V10.672c0-1.809-1.461-3.271-3.273-3.271c-1.811,0-3.274,1.463-3.274,3.271v10.869	H10.674c-1.813,0-3.274,1.464-3.274,3.272c0,1.807,1.462,3.27,3.274,3.27h10.863v10.869c0,1.809,1.464,3.272,3.274,3.272	c1.813,0,3.274-1.466,3.274-3.272V28.084h10.867c1.812,0,3.271-1.463,3.271-3.27C42.225,23.005,40.764,21.541,38.953,21.541z"/></svg>