<svg xmlns="http://www.w3.org/2000/svg" xmlns:xlink="http://www.w3.org/1999/xlink" id="Layer_3" width="600" height="600" x="0" y="0" enable-background="new 0 0 600 600" version="1.1" viewBox="0 0 600 600" xml:space="preserve"><g><path fill="#546E7A" d="M414.538,310.324l-170.362,170.32c-2.848,2.891-6.366,4.354-10.302,4.354 c-4.021,0-7.456-1.465-10.304-4.354l-38.108-38.111c-2.933-2.933-4.355-6.365-4.355-10.301c0-4.021,1.423-7.455,4.355-10.388 L307.328,300L185.462,178.132c-2.933-2.909-4.355-6.344-4.355-10.322c0-3.999,1.423-7.435,4.355-10.344l38.11-38.089 c2.848-2.91,6.281-4.377,10.303-4.377c3.936,0,7.453,1.467,10.301,4.377l170.362,170.301c2.848,2.909,4.354,6.365,4.354,10.322 C418.895,303.979,417.386,307.436,414.538,310.324z"/></g></svg>