<svg xmlns="http://www.w3.org/2000/svg" xmlns:xlink="http://www.w3.org/1999/xlink" id="Layer_3" width="600" height="600" x="0" y="0" enable-background="new 0 0 600 600" version="1.1" viewBox="0 0 600 600" xml:space="preserve"><g><path fill="#546E7A" d="M299.983,180.455c3.997,0,7.457,1.534,10.382,4.392l171.246,171.279c2.927,2.892,4.389,6.383,4.389,10.373 c0,4.037-1.462,7.494-4.389,10.346l-38.307,38.31c-2.93,2.926-6.388,4.393-10.418,4.393c-3.994,0-7.455-1.467-10.382-4.393 L299.983,292.633l-122.521,122.52c-2.936,2.926-6.394,4.393-10.385,4.393c-3.997,0-7.466-1.467-10.385-4.393L118.39,376.85 c-2.93-2.853-4.392-6.304-4.392-10.341c0-3.989,1.468-7.487,4.392-10.385l171.213-171.279 C292.528,181.989,295.986,180.455,299.983,180.455z"/></g></svg>